<svg xmlns="http://www.w3.org/2000/svg" width="612" height="612" viewBox="0 0 612 612"><path fill="#483643" d="M348.957 445.019l-64.472-27.452-64.478 27.452s-41.493 2.456-41.493 49.792c0 31.921 38.302 77.245 105.97 77.245 67.667 0 105.965-45.324 105.965-77.245.001-47.336-41.492-49.792-41.492-49.792z"/><path fill="#483643" d="M364.485 408.993L302.1 450.997c10.746 49.806 37.612 77.813 37.612 77.813l6.564-7.103 7.614 3.49c21.897-52.766 10.595-116.204 10.595-116.204zM211.233 405.73l60.009 45.329c-13.43 49.143-41.788 75.653-41.788 75.653l-6.162-7.443-7.793 3.079c-19-53.883-4.266-116.618-4.266-116.618z"/><path fill="#483643" d="M394.932 184.654c-2.223 3.271-6.449 5.284-10.948 2.94-9.716-5.06-17.724-12.521-26.816-18.517a8.472 8.472 0 0 1-2.738-2.886c-.447.071-.869.188-1.371.188-22.908-.058-43.805-9.55-66.386-10.849-25.046-1.438-48.994 2.339-73.583 6.722-26.341 4.697-50.173 11.468-64.074 36.72-4.414 8.03-8.828 16.034-13.328 23.998-16.975 55.416 9.241 129.864 57.675 186.629 81.717 95.757 123.312 73.09 190.17 1.272 60.76-65.266 73.034-169.725 11.399-226.217z"/><path fill="#80757A" d="M411.153 285.107c0-56.178-37.598-81.713-37.598-81.713l-9.339-39.547c-23.522-11.652-53.149-18.544-89.672-18.544-183.855 0-181.108 162.551-93.207 265.568 21.99 25.763 41.941 41.286 60.664 49.361 11.661 5.028 26.355 11.737 33.745 11.737 7.287 0 22.093-7.139 32.91-11.159 82.331-38.4 102.497-119.565 102.497-175.703z"/><path fill="#483642" d="M330.92 407.349c4.97 5.404 13.884 5.337 19.889-.175 6.009-5.498 6.838-14.349 1.864-19.744-4.961-5.409-13.853-5.319-19.857.192-6.014 5.503-6.861 14.331-1.896 19.727z"/><path fill="#FFF" d="M345.314 405.278a5.196 5.196 0 0 1-7.332-.318c-1.936-2.106-1.801-5.399.305-7.327a5.194 5.194 0 0 1 7.336.327 5.17 5.17 0 0 1-.309 7.318z"/><path fill="#483642" d="M230.574 387.617c-6.005-5.507-14.892-5.597-19.861-.192-4.965 5.396-4.136 14.241 1.869 19.745 6.005 5.512 14.923 5.579 19.888.174 4.965-5.4 4.118-14.224-1.896-19.727z"/><path fill="#FFF" d="M218.081 405.278a5.184 5.184 0 0 0 7.322-.318c1.945-2.106 1.806-5.399-.305-7.327-2.097-1.931-5.391-1.792-7.332.327a5.167 5.167 0 0 0 .315 7.318z"/><path fill="#80757A" d="M311.032 480.386c12.292 31.248 28.681 48.425 28.681 48.425s8.738-25.477 3.128-68c-17.621 13.659-31.576 19.476-31.809 19.575zM207.415 429.841c-2.532 23.195-3.554 59.498 8.084 92.508l7.793-3.079 6.162 7.443s10.455-9.822 21.667-28.487c-24.082-19.884-37.831-51.8-43.706-68.385z"/><path fill="#483643" d="M439.548 514.703c-33.539 41.291-71.604 65.845-85.052 54.856-13.439-10.984 2.868-53.359 36.389-94.65 33.543-41.277 85.069-54.847 85.069-54.847s-2.855 53.36-36.406 94.641zM131.819 514.699c33.543 41.291 71.603 65.844 85.056 54.855 13.435-10.988-2.873-53.359-36.393-94.65-33.538-41.277-85.069-54.847-85.069-54.847s2.855 53.355 36.406 94.642z"/><g fill="#A6808E"><path d="M121.082 499.507c-.224-.381-.461-.721-.69-1.115.229.376.462.743.69 1.115zM121.082 499.507c4.683 8.058 9.711 14.73 14.882 20.131-1.38-1.632-2.778-3.249-4.145-4.938-4.002-4.927-7.56-10.03-10.737-15.193z"/></g><path fill="#80757A" d="M178.515 476.836s6.238-23.303 29.326-29.899l3.72 24.154s-18.306 2.241-21.712 19.79"/><path fill="#80757A" d="M197.923 503.491c-2.76-8.685-8.792-18.481-17.298-28.771l2.63.838c-34.932-45.727-87.843-55.501-87.843-55.501l48.779 50.796-33.458-19.946c.044.13.094.265.134.398 1.138 3.442 10.375 29.936 34.089 55.959 25.396 27.878 49.012 45.553 55.255 30.481 3.135-8.088 1.118-22.173-2.288-34.254z"/><path fill="#483643" d="M537.393 313.272a154.872 154.872 0 0 0-13.753-20.704c-9.541-11.857-19.068-14.905-14.582-4.849h-.01c5.965 12.745 9.546 28.972 3.24 46.185-9.214 25.131 4.639 38.84 19.314 38.781 3.24-.018 6.489-.784 9.567-2.16 1.009 15.174.758 57.984-28.998 91.522-1.224 1.354-2.456 2.702-3.729 3.993-.157.161-.313.322-.471.479a132.938 132.938 0 0 1-4.535 4.307c-.354.313-.677.636-1.035.949-.09.081-.17.144-.255.225-22.56 19.982-50.806 30.746-79.352 32.498-4.544 5.996-8.877 12.127-13.081 18.347 47.273 1.793 93.521-18.731 121.69-59.006 31.686-45.296 32.035-103.499 5.99-150.567z"/><path fill="#80757A" d="M439.673 466.225s1.757-1 4.464-2.711c9.105-5.925 29.28-21.363 31.817-43.451 0 0-87.659 18.427-121.552 115.376 0 0 30.58-64.562 102.08-96.479l-16.809 27.265z"/><path fill="#483643" d="M339.829 201.732c31.109 38.692 73.242 41.031 73.242 41.031l3.191-17.446s-2.231-10.957-4.042-12.768c-1.811-1.81-6.808-8.514-6.808-8.514"/><path fill="#DFDFC9" d="M348.316 204.524c12.145 6.314 24.773 10.953 37.881 4.289 10.737-5.462 21.031-12.512 23.594-25.185 2.461-12.18 2.125-23.366 4.464-34.551-.771-5.965-1.918-11.575-3.334-16.68-1.483-5.046-3.289-9.048-5.338-11.898-7.658-9.429-15.505-1.837-25.377 10.231l-.031.014c-12.387 16.912-28.766 30.728-39.539 38.871a3.721 3.721 0 0 1-.247.188c-.331.251-.641.479-.959.717-7.049 5.378-10.643 11.284-4.082 24.378 1.847 3.393 4.056 6.354 6.436 9.057 1.952-.681 4.202-.641 6.532.569z"/><path fill="#DCD66F" d="M279.277 58.827c-38.907.081-70.375 13.054-70.321 28.954.044 15.9 31.616 28.726 70.514 28.636 38.867-.089 70.352-13.063 70.316-28.949-.076-15.932-31.651-28.744-70.509-28.641zm.09 29.886c-20.74.045-37.581-4.001-37.599-9.043-.013-5.055 16.787-9.182 37.549-9.227 20.735-.045 37.567 4.011 37.593 9.061.02 5.037-16.785 9.164-37.543 9.209z"/><path fill="#483643" d="M335.348 194.898c17.078 35.949 64.396 33.045 73.893 7.381 9.993-27.018 6.785-51.5 1.681-69.882-1.483-5.046-3.289-9.048-5.338-11.898-1.931-2.379-3.876-3.675-5.865-4.083 18.776 6.866 3.137 67.511-16.976 83.151-20.067 15.608-54.278-5.409-50.361-20.009-1.063 3.832-.396 8.636 2.966 15.34z"/><path fill="none" d="M159.635 119.719c-.031 0-.049-.009-.081-.009l.072.009h.009zM161.051 119.943c.511.125 1.018.3 1.537.52a8.025 8.025 0 0 0-1.537-.52z"/><path fill="#DFDFC9" d="M213.585 190.533c-.291-8.438-6.87-15.138-16.29-23.518-18.405-16.393-24.997-42.088-34.708-46.552-.52-.22-1.026-.395-1.537-.52-.457-.099-.914-.22-1.384-.22l-.112-.013c-.188 0-.318-.031-.493-.041-2.474.018-4.867 1.304-7.247 4.23-2.057 2.854-3.854 6.852-5.346 11.902-5.1 18.378-7.287 42.855 2.711 69.877 4.369 11.817 16.415 18.006 29.863 18.154 18.496-.513 35.117-16.736 34.543-33.299z"/><path fill="#D9D9D8" d="M159.062 119.67c.175.009.305.041.493.041-.166-.005-.332-.041-.493-.041z"/><path opacity=".44" fill="#6E5766" d="M159.062 119.67c.175.009.305.041.493.041-.166-.005-.332-.041-.493-.041z"/><path fill="#D9D9D8" d="M159.667 119.724c.47 0 .927.121 1.384.22a8.344 8.344 0 0 0-1.384-.22z"/><path opacity=".44" fill="#6E5766" d="M159.667 119.724c.47 0 .927.121 1.384.22a8.344 8.344 0 0 0-1.384-.22z"/><path fill="#483643" d="M217.968 173.921c-.323-.237-.632-.47-.963-.717-.09-.059-.166-.121-.247-.184v-.009c-10.777-8.138-27.148-21.949-39.539-38.871l-.031-.009c-5.369-6.561-10.142-11.768-14.601-13.668 6.74 3.097 11.979 16.401 20.695 29.733l-.013-.004c7.224 10.876 13.207 21.053 17.253 30.164 9.662 23.984-15.685 48.681-40.713 38.212 0 0 16.334 12.49 40.955.255.448-.224.807-.461 1.228-.69a51.298 51.298 0 0 0 1.775-.995 39.477 39.477 0 0 0 2.667-1.725c6.121-4.136 11.598-9.747 15.608-17.11 6.569-13.102 2.971-19-4.074-24.382zM402.335 224.744s.591-.385-12.028-5.163c-12.619-4.777-28.295-9.751-33.077-11.853-4.781-2.102-6.313-2.294-7.075-3.061-.762-.767-5.36-2.936-5.36-2.936l-8.541-5.032c11.799 23.648 47.9 43.222 66.082 44.333 18.175 1.113-.001-16.288-.001-16.288z"/></svg>
